# xmcd CD database file
#
# Track frame offsets:
#	150
#	21187
#	37500
#	54712
#	71142
#	89025
#	110212
#	129562
#	151050
#	172950
#
# Disc length: 2621 seconds
#
# Revision: 2
# Processed by: cddbd v1.5PL3 Copyright (c) Steve Scherf et al.
# Submitted via: CDex 1.51
#
DISCID=820a3b0a
DTITLE=Laputa - 翔〜カケラ〜裸
DYEAR=1999
DGENRE=Rock
TTITLE0=Sadness
TTITLE1=Virgin Cry
TTITLE2=Jesus
TTITLE3=Starting paranoia
TTITLE4=Chimes
TTITLE5=Refrain Limit/Drug Habit
TTITLE6=Breath
TTITLE7=Feelin' the sky
TTITLE8=Masquerade
TTITLE9=After lovers
EXTD=YEAR: 1999
EXTT0=
EXTT1=
EXTT2=
EXTT3=
EXTT4=
EXTT5=
EXTT6=
EXTT7=
EXTT8=
EXTT9=
PLAYORDER=
